<svg version="1.1" class="mohsen-svg-clock" xmlns="http://www.w3.org/2000/svg" xmlns:xlink="http://www.w3.org/1999/xlink" x="0px"
	 y="0px" viewBox="0 0 512 512" style="enable-background:new 0 0 512 512;" xml:space="preserve">
<style type="text/css">
	.st0{fill:#FFFFFF;}
	.st1{fill:#006633;}
	.st2{display:none;fill:none;}
	.st3{fill:#E03B20;}
	.st4{fill:#314D48;}
</style>
<circle class="st0" cx="256" cy="256" r="212.8"/>
<circle class="st0" cx="256" cy="256" r="159.5"/>
<g>
	<path class="st1" d="M256,6C117.9,6,6,117.9,6,256s111.9,250,250,250s250-111.9,250-250S394.1,6,256,6z M393.8,335.6l12.2,70.5
		l-70.5-12.2L310.9,461L256,415.2L201.1,461l-24.7-67.2L105.9,406l12.2-70.5L51,310.9L96.8,256L51,201.1l67.2-24.7L106,105.9
		l70.5,12.2L201.1,51L256,96.8L310.9,51l24.7,67.2l70.5-12.2l-12.2,70.5l67.2,24.7L415.2,256l45.8,54.9L393.8,335.6z"/>
</g>
<line class="st2" x1="36.5" y1="255.5" x2="476.5" y2="255.5"/>
<line class="st2" x1="256.5" y1="475.5" x2="256.5" y2="35.5"/>
<g class="svg-clock-seconds">
	<path class="st3" d="M256,43.2c0.2,8.9,0.4,17.7,0.5,26.6v26.6v53.1v53.2v26.6c-0.2,8.9-0.3,17.7-0.5,26.6
		c-0.2-8.9-0.4-17.7-0.5-26.6v-26.6v-53.2V96.4V69.8C255.7,61,255.8,52.2,256,43.2z"/>
</g>
<g class="svg-clock-minutes">
	<polygon points="256.4,96.5 257,116.5 257,136.4 257.3,176.5 257.4,216.5 257.4,236.5 256.9,256.5 256.2,236.5 256.2,216.5
		256.1,176.5 255.9,136.5 255.9,116.5 	"/>
</g>
<g class="svg-clock-hours">
	<path d="M256.4,144.3c0.2,4.6,0.3,9.4,0.5,14v14v28.1v28.1v14l-0.5,14l-0.5-14v-14v-28.1v-28.1v-14
		C256.1,153.7,256.2,149,256.4,144.3z"/>
</g>
<circle class="st3" cx="256.5" cy="256.5" r="5"/>
<g>
	<g>
		<path class="st4" d="M313,237h-45c-1.7,0-3-1.3-3-3v-7c0-1.7,1.3-3,3-3h45c1.7,0,3,1.3,3,3v7C316,235.7,314.7,237,313,237z"/>
		<path class="st4" d="M309,264h-41c-1.7,0-3-1.3-3-3v-7c0-1.7,1.3-3,3-3h41c1.7,0,3,1.3,3,3v7C312,262.7,310.7,264,309,264z"/>
		<path class="st4" d="M313,291h-45c-1.7,0-3-1.3-3-3v-7c0-1.7,1.3-3,3-3h45c1.7,0,3,1.3,3,3v7C316,289.7,314.7,291,313,291z"/>
	</g>
	<path class="st4" d="M257,286.2l-25.2-59.8c-0.6-1.5-2-2.4-3.6-2.4H220c-1.6,0-3,1-3.6,2.4l-17.8,42.9c-0.7,1.8,0.6,3.7,2.5,3.7
		h8.5c0.9,0,1.7-0.5,2.1-1.4l11.6-27.6c0.3-0.7,1.3-0.7,1.6,0l14.2,34h-43.3c-1,0-2,0.6-2.3,1.6l-2.8,7.2c-0.8,2,0.7,4.2,2.9,4.2
		h60.3C256.3,291,258,288.5,257,286.2z"/>
</g>
<g class="svg-clock-thebeneficent">
	<path d="M231.4,399.9c0,0.1-0.1,0.2-0.2,0.3l-0.3,0c0.1,0.1,0.1,0.3,0.1,0.4c0,0.5-0.5,0.8-0.9,0.8c-0.1,0-0.2,0-0.3,0
		c-0.1,0-0.1,0.1-0.1,0.2c0,0.1,0.1,0.2,0.3,0.2c0.2,0,0.4,0,0.5,0c0.3,0,0.7,0.1,0.7,0.6c0,0.5-0.6,1-1.3,1c-0.6,0-0.9-0.3-0.9-0.6
		c0-0.1,0.1-0.2,0.1-0.3c0.1-0.1,0.3-0.2,0.4-0.3c-0.2-0.1-0.3-0.2-0.4-0.3c0-0.1-0.1-0.2-0.1-0.2c0.2-0.1,0.4-0.2,0.5-0.3
		c-0.2-0.1-0.4-0.3-0.4-0.7c0-0.6,0.5-0.8,0.9-0.8h0c0.2,0,0.3,0,0.5,0.1C230.9,399.9,231.2,399.9,231.4,399.9L231.4,399.9z
		 M230.2,402.1c-0.2,0-0.3,0-0.4,0.1c-0.1,0.1-0.2,0.2-0.2,0.4c0,0.3,0.3,0.5,0.7,0.5c0.5,0,0.7-0.2,0.7-0.5c0-0.2-0.1-0.3-0.2-0.4
		C230.6,402.1,230.4,402.1,230.2,402.1L230.2,402.1z M230.1,400c-0.2,0-0.4,0.2-0.4,0.6c0,0.4,0.2,0.7,0.5,0.7
		c0.2,0,0.4-0.2,0.4-0.6C230.6,400.2,230.4,400,230.1,400L230.1,400z"/>
	<path d="M231.6,402v-0.1c0.3,0,0.4-0.1,0.4-0.4v-1c0-0.3,0-0.3-0.3-0.4V400c0.3,0,0.5-0.1,0.8-0.2v1.7c0,0.3,0,0.4,0.4,0.4v0.1
		H231.6z M231.8,399.1c0-0.2,0.1-0.3,0.3-0.3s0.3,0.1,0.3,0.3c0,0.1-0.1,0.3-0.3,0.3C231.9,399.4,231.8,399.3,231.8,399.1z"/>
	<path d="M234,402c-0.1,0.1-0.2,0.1-0.2,0.1c-0.3,0-0.5-0.2-0.5-0.6v-1.4h-0.3l0-0.1l0.1-0.2h0.2v-0.4l0.4-0.3l0.1,0v0.7h0.6
		c0.1,0.1,0,0.2,0,0.2h-0.5v1.3c0,0.4,0.2,0.5,0.3,0.5c0.1,0,0.2,0,0.3-0.1l0,0.1L234,402z"/>
	<path d="M235.9,402v-0.1c0.3,0,0.3-0.1,0.3-0.4v-0.8c0-0.4-0.2-0.6-0.5-0.6c-0.2,0-0.4,0.1-0.5,0.2v1.2c0,0.3,0,0.4,0.3,0.4v0.1
		h-1.1v-0.1c0.3,0,0.3-0.1,0.3-0.4v-2.4c0-0.3,0-0.3-0.3-0.4v-0.1c0.2,0,0.6-0.1,0.8-0.2v1.7c0.2-0.2,0.5-0.4,0.7-0.4
		c0.4,0,0.7,0.3,0.7,0.9v0.9c0,0.3,0,0.4,0.3,0.4v0.1H235.9z"/>
	<path d="M239.8,401.9c-0.1,0-0.3,0-0.4,0.1c-0.1,0-0.3,0.1-0.4,0.1l0,0v-0.4c-0.1,0.1-0.2,0.2-0.4,0.3c-0.2,0.1-0.3,0.1-0.4,0.1
		c-0.4,0-0.6-0.2-0.6-0.7v-1c0-0.3,0-0.3-0.2-0.3l-0.1,0v-0.1c0.1,0,0.2,0,0.4,0c0.1,0,0.3,0,0.4-0.1c0,0.2,0,0.4,0,0.7v0.7
		c0,0.4,0.2,0.5,0.4,0.5c0.2,0,0.4-0.1,0.5-0.2v-1.2c0-0.3,0-0.3-0.2-0.3l-0.2,0v-0.1c0.1,0,0.3,0,0.5,0c0.2,0,0.3,0,0.4,0v1.6
		c0,0.3,0,0.3,0.2,0.3l0.1,0V401.9z"/>
	<path d="M241,399.9c0.1,0,0.2-0.1,0.2-0.1c0.6,0,1,0.5,1,1c0,0.7-0.6,1.2-1.3,1.2c-0.2,0-0.5,0-0.8-0.2v-2.8c0-0.3,0-0.3-0.3-0.4
		v-0.1c0.2,0,0.6-0.1,0.8-0.2v1.5L241,399.9z M240.7,401.5c0,0.1,0,0.1,0,0.2c0,0.1,0.2,0.3,0.4,0.3c0.4,0,0.7-0.3,0.7-0.9
		c0-0.6-0.4-0.9-0.8-0.9c-0.1,0-0.3,0-0.4,0.1V401.5z"/>
	<path d="M243.1,402.1c-0.2,0-0.3-0.1-0.3-0.3c0-0.2,0.1-0.3,0.3-0.3s0.3,0.1,0.3,0.3C243.4,402,243.2,402.1,243.1,402.1
		L243.1,402.1z"/>
	<path d="M245.8,401.6c-0.2,0.3-0.6,0.5-0.9,0.5c-0.7,0-1-0.5-1-1c0-0.4,0.2-0.7,0.5-1c0.3-0.2,0.6-0.3,0.8-0.3h0
		c0.2,0,0.4,0.1,0.5,0.1c0.1,0.1,0.1,0.1,0.1,0.2c0,0.1-0.1,0.2-0.2,0.2c0,0-0.1,0-0.1-0.1c-0.2-0.1-0.3-0.2-0.5-0.2
		c-0.3,0-0.6,0.3-0.6,0.8c0,0.7,0.5,0.9,0.8,0.9c0.2,0,0.4-0.1,0.6-0.3L245.8,401.6z"/>
	<path d="M247.2,399.8c0.6,0,1.1,0.5,1.1,1.1c0,0.8-0.6,1.2-1.1,1.2c-0.7,0-1.2-0.5-1.2-1.1C246,400.2,246.7,399.8,247.2,399.8
		L247.2,399.8z M247.1,400c-0.3,0-0.6,0.3-0.6,0.9c0,0.6,0.3,1.1,0.7,1.1c0.3,0,0.6-0.2,0.6-0.9C247.8,400.4,247.5,400,247.1,400
		L247.1,400z"/>
	<path d="M251.5,402v-0.1c0.3,0,0.3-0.1,0.3-0.4v-0.8c0-0.4-0.1-0.6-0.4-0.6c-0.2,0-0.3,0.1-0.5,0.3c0,0.1,0,0.1,0,0.2v1
		c0,0.3,0,0.3,0.3,0.4v0.1H250v-0.1c0.3,0,0.3-0.1,0.3-0.4v-0.8c0-0.4-0.1-0.6-0.4-0.6c-0.2,0-0.4,0.1-0.5,0.2v1.2
		c0,0.3,0,0.4,0.3,0.4v0.1h-1.1v-0.1c0.3,0,0.4-0.1,0.4-0.4v-1c0-0.3,0-0.3-0.3-0.4V400c0.2,0,0.5-0.1,0.7-0.2v0.4
		c0.1-0.1,0.2-0.2,0.4-0.3c0.1-0.1,0.3-0.1,0.4-0.1c0.2,0,0.5,0.2,0.6,0.4c0.2-0.1,0.3-0.2,0.4-0.3c0.1-0.1,0.2-0.1,0.4-0.1
		c0.4,0,0.7,0.3,0.7,0.8v0.9c0,0.3,0,0.3,0.3,0.4v0.1H251.5z"/>
	<path d="M253.1,402.3h-0.3l1.1-3.5h0.3L253.1,402.3z"/>
	<path d="M258.7,402v-0.1c0.3,0,0.3-0.1,0.3-0.4v-0.8c0-0.4-0.2-0.6-0.5-0.6c-0.2,0-0.4,0.1-0.5,0.2v1.2c0,0.3,0,0.4,0.3,0.4v0.1
		h-1.1v-0.1c0.3,0,0.4-0.1,0.4-0.4V399c-0.3,0-0.6,0-1,0h-0.3v2.4c0,0.4,0,0.5,0.5,0.5v0.1h-1.5v-0.1c0.4,0,0.5-0.1,0.5-0.5V399
		h-0.3c-0.5,0-0.6,0-0.6,0.2c-0.1,0.1-0.1,0.2-0.2,0.4h-0.1c0-0.3,0-0.6,0.1-0.9h0.1c0.1,0.1,0.1,0.1,0.3,0.1h2.2
		c0.4,0,0.5,0,0.5-0.1v-0.1c0.1,0,0.3-0.1,0.4-0.1v1.7c0.2-0.2,0.5-0.4,0.7-0.4c0.4,0,0.7,0.2,0.7,0.9v0.8c0,0.3,0,0.4,0.3,0.4v0.1
		H258.7z"/>
	<path d="M262,401.6c-0.3,0.4-0.7,0.5-0.9,0.5c-0.6,0-1-0.5-1-1.1c0-0.3,0.1-0.6,0.3-0.9c0.2-0.2,0.5-0.4,0.8-0.4h0
		c0.4,0,0.8,0.4,0.8,0.8c0,0.1,0,0.1-0.1,0.2c-0.1,0-0.7,0.1-1.3,0.1c0,0.6,0.4,0.9,0.7,0.9c0.2,0,0.4-0.1,0.6-0.2L262,401.6z
		 M261.1,400c-0.2,0-0.4,0.2-0.5,0.6c0.3,0,0.5,0,0.8,0c0.1,0,0.1,0,0.1-0.1C261.5,400.2,261.4,400,261.1,400L261.1,400z"/>
	<path d="M264.1,400.3c0.5,0.1,0.9,0.3,0.9,0.8c0,0.3-0.2,0.6-0.5,0.8c-0.3,0.1-0.6,0.2-1,0.2h-1.2v-0.1c0.4,0,0.5-0.1,0.5-0.5v-2
		c0-0.4,0-0.5-0.4-0.5v-0.2h1.4c0.4,0,0.6,0.1,0.8,0.2c0.2,0.1,0.3,0.3,0.3,0.6C264.8,400,264.3,400.2,264.1,400.3L264.1,400.3z
		 M263.5,400.2c0.6,0,0.8-0.2,0.8-0.6c0-0.4-0.2-0.6-0.7-0.6c-0.1,0-0.2,0-0.3,0.1c0,0-0.1,0.1-0.1,0.2v1H263.5z M263.2,401.4
		c0,0.4,0.1,0.5,0.4,0.5c0.4,0,0.8-0.2,0.8-0.7c0-0.5-0.3-0.7-1-0.7h-0.2V401.4z"/>
	<path d="M267.2,401.6c-0.3,0.4-0.7,0.5-0.9,0.5c-0.6,0-1-0.5-1-1.1c0-0.3,0.1-0.6,0.3-0.9c0.2-0.2,0.5-0.4,0.8-0.4h0
		c0.4,0,0.8,0.4,0.8,0.8c0,0.1,0,0.1-0.1,0.2c-0.1,0-0.7,0.1-1.3,0.1c0,0.6,0.4,0.9,0.7,0.9c0.2,0,0.4-0.1,0.6-0.2L267.2,401.6z
		 M266.3,400c-0.2,0-0.4,0.2-0.5,0.6c0.3,0,0.5,0,0.8,0c0.1,0,0.1,0,0.1-0.1C266.8,400.2,266.6,400,266.3,400L266.3,400z"/>
	<path d="M269,402v-0.1c0.3,0,0.3-0.1,0.3-0.4v-0.8c0-0.3-0.1-0.6-0.5-0.6c-0.2,0-0.4,0.1-0.5,0.2v1.2c0,0.3,0,0.4,0.3,0.4v0.1h-1.1
		v-0.1c0.3,0,0.4-0.1,0.4-0.4v-1c0-0.3,0-0.3-0.3-0.4V400c0.2,0,0.5-0.1,0.7-0.2v0.4c0.1-0.1,0.2-0.2,0.3-0.2
		c0.1-0.1,0.3-0.1,0.4-0.1c0.4,0,0.7,0.3,0.7,0.8v0.9c0,0.3,0,0.4,0.3,0.4v0.1H269z"/>
	<path d="M272.2,401.6c-0.3,0.4-0.7,0.5-0.9,0.5c-0.6,0-1-0.5-1-1.1c0-0.3,0.1-0.6,0.3-0.9c0.2-0.2,0.5-0.4,0.8-0.4h0
		c0.4,0,0.8,0.4,0.8,0.8c0,0.1,0,0.1-0.1,0.2c-0.1,0-0.7,0.1-1.3,0.1c0,0.6,0.4,0.9,0.7,0.9c0.2,0,0.4-0.1,0.6-0.2L272.2,401.6z
		 M271.3,400c-0.2,0-0.4,0.2-0.5,0.6c0.3,0,0.5,0,0.8,0c0.1,0,0.1,0,0.1-0.1C271.8,400.2,271.6,400,271.3,400L271.3,400z"/>
	<path d="M273.9,402v-0.1c0.3,0,0.3-0.1,0.3-0.4v-1.2c0-0.2,0-0.3-0.3-0.3h-0.7v1.5c0,0.3,0,0.3,0.4,0.4v0.1h-1.2v-0.1
		c0.3,0,0.4-0.1,0.4-0.4v-1.5h-0.4l0-0.1l0.1-0.2h0.2v-0.1c0-0.2,0-0.3,0.1-0.4c0-0.1,0.2-0.4,0.4-0.6c0.2-0.2,0.5-0.3,0.6-0.3
		c0.3,0,0.5,0.2,0.6,0.2c0,0.1,0,0.1,0,0.2c0,0-0.1,0.1-0.1,0.1c-0.1,0-0.1,0-0.2,0c-0.1-0.1-0.3-0.3-0.5-0.3
		c-0.2,0-0.3,0.1-0.3,0.2c-0.1,0.1-0.2,0.4-0.2,0.8v0.2h0.4c0.4,0,0.7,0,1-0.1v1.7c0,0.3,0,0.3,0.4,0.4v0.1H273.9z"/>
	<path d="M277.2,401.6c-0.2,0.3-0.6,0.5-0.9,0.5c-0.7,0-1-0.5-1-1c0-0.4,0.2-0.7,0.5-1c0.3-0.2,0.6-0.3,0.8-0.3h0
		c0.2,0,0.4,0.1,0.5,0.1c0.1,0.1,0.1,0.1,0.1,0.2c0,0.1-0.1,0.2-0.2,0.2c0,0-0.1,0-0.1-0.1c-0.2-0.1-0.3-0.2-0.5-0.2
		c-0.3,0-0.6,0.3-0.6,0.8c0,0.7,0.5,0.9,0.8,0.9c0.2,0,0.4-0.1,0.6-0.3L277.2,401.6z"/>
	<path d="M279.3,401.6c-0.3,0.4-0.7,0.5-0.9,0.5c-0.6,0-1-0.5-1-1.1c0-0.3,0.1-0.6,0.3-0.9c0.2-0.2,0.5-0.4,0.8-0.4h0
		c0.4,0,0.8,0.4,0.8,0.8c0,0.1,0,0.1-0.1,0.2c-0.1,0-0.7,0.1-1.3,0.1c0,0.6,0.4,0.9,0.7,0.9c0.2,0,0.4-0.1,0.6-0.2L279.3,401.6z
		 M278.4,400c-0.2,0-0.4,0.2-0.5,0.6c0.3,0,0.5,0,0.8,0c0.1,0,0.1,0,0.1-0.1C278.9,400.2,278.7,400,278.4,400L278.4,400z"/>
	<path d="M281.1,402v-0.1c0.3,0,0.3-0.1,0.3-0.4v-0.8c0-0.3-0.1-0.6-0.5-0.6c-0.2,0-0.4,0.1-0.5,0.2v1.2c0,0.3,0,0.4,0.3,0.4v0.1
		h-1.1v-0.1c0.3,0,0.4-0.1,0.4-0.4v-1c0-0.3,0-0.3-0.3-0.4V400c0.2,0,0.5-0.1,0.7-0.2v0.4c0.1-0.1,0.2-0.2,0.3-0.2
		c0.1-0.1,0.3-0.1,0.4-0.1c0.4,0,0.7,0.3,0.7,0.8v0.9c0,0.3,0,0.4,0.3,0.4v0.1H281.1z"/>
	<path d="M283.5,402c-0.1,0.1-0.2,0.1-0.2,0.1c-0.3,0-0.5-0.2-0.5-0.6v-1.4h-0.3l0-0.1l0.1-0.2h0.2v-0.4l0.4-0.3l0.1,0v0.7h0.6
		c0.1,0.1,0,0.2,0,0.2h-0.5v1.3c0,0.4,0.2,0.5,0.3,0.5c0.1,0,0.2,0,0.3-0.1l0,0.1L283.5,402z"/>
</g>
</svg>
